# xmcd
#
# Track frame offsets: 
#        187
#        15525
#        31300
#        52275
#        66375
#        81700
#        98050
#        115600
#        131750
#        153975
#        172925
#        194200
#
# Disc length: 2871 seconds
#
# Revision: 0
# Processed by: cddbd v1.5.2PL0 Copyright (c) Steve Scherf et al.
# Submitted via: ExactAudioCopyFreeDBPlugin 1.0
#
DISCID=a90b350c
DTITLE=Дмитрий Харатьян - Здравствуй, если ты далеко...
DYEAR=1995
DGENRE=Pop
TTITLE0=Костер в ночи
TTITLE1=Час пик
TTITLE2=Мой дождь
TTITLE3=Ты придумал себя
TTITLE4=Мечта и печаль
TTITLE5=Докури - доживи - дотяни
TTITLE6=Здравствуй, если ты далеко...
TTITLE7=Родная стая
TTITLE8=Ты мне нравишься
TTITLE9=Пляжный сезон
TTITLE10=Слова, слова, слова!
TTITLE11=Старый город Любовь
EXTD=
EXTT0=
EXTT1=
EXTT2=
EXTT3=
EXTT4=
EXTT5=
EXTT6=
EXTT7=
EXTT8=
EXTT9=
EXTT10=
EXTT11=
PLAYORDER=
